<svg xmlns="http://www.w3.org/2000/svg" version="1.1" xmlns:xlink="http://www.w3.org/1999/xlink" xmlns:svgjs="http://svgjs.dev/svgjs" width="1000" height="623" viewBox="0 0 1000 623"><g transform="matrix(1,0,0,1,-0.6060606060606233,0.2522267206477409)"><svg viewBox="0 0 396 247" data-background-color="#ffffff" preserveAspectRatio="xMidYMid meet" height="623" width="1000" xmlns="http://www.w3.org/2000/svg" xmlns:xlink="http://www.w3.org/1999/xlink"><g id="tight-bounds" transform="matrix(1,0,0,1,0.2400000000000091,-0.09999999999999432)"><svg viewBox="0 0 395.52 247.2" height="247.2" width="395.52"><g><svg></svg></g><g><svg viewBox="0 0 395.52 247.2" height="247.2" width="395.52"><g transform="matrix(1,0,0,1,122.87294117647059,47.215199999999996)"><svg viewBox="0 0 149.7741176470588 152.7696" height="152.7696" width="149.7741176470588"><g><svg viewBox="0 0 149.7741176470588 152.7696" height="152.7696" width="149.7741176470588"><g><svg viewBox="0 0 149.7741176470588 152.7696" height="152.7696" width="149.7741176470588"><g><svg viewBox="0 0 149.7741176470588 152.7696" height="152.7696" width="149.7741176470588"><g id="textblocktransform"><svg viewBox="0 0 149.7741176470588 152.7696" height="152.7696" width="149.7741176470588" id="textblock"><g><svg viewBox="0 0 149.7741176470588 152.7696" height="152.7696" width="149.7741176470588"><g transform="matrix(1,0,0,1,0,0)"><svg width="149.7741176470588" viewBox="2.200000047683716 -35.349998474121094 35 35.69999694824219" height="152.7696" data-palette-color="#a437db"><path d="M5.8-33.4Q5.65-32.3 5.55-27.75L5.55-27.75Q5.55-26.35 5.35-20.65L5.35-20.65Q5.15-15.15 5.15-13.95L5.15-13.95Q5.15-11.05 5.25-6.63 5.35-2.2 5.45-1.35L5.45-1.35Q5.5-1.05 5.5-0.65L5.5-0.65Q5.5-0.3 5.38-0.15 5.25 0 5 0.15L5 0.15Q4.7 0.35 3.45 0.35L3.45 0.35Q3.25 0.35 2.83 0.35 2.4 0.35 2.3 0.25 2.2 0.15 2.2-0.15L2.2-0.15 2.25-1.75 2.35-8.3 2.45-18.8Q2.45-20.3 2.65-25.6L2.65-25.6Q2.7-26.85 2.8-29.68 2.9-32.5 2.8-33L2.8-33 2.75-34.05Q2.75-35.35 3.55-35.35L3.55-35.35 5.4-35.3Q5.9-35.3 5.9-34.6L5.9-34.6Q5.9-34.35 5.85-34.02 5.8-33.7 5.8-33.4L5.8-33.4ZM11.4-34.65Q12.15-34.65 14.15-34.75L14.15-34.75Q16.55-34.85 17.7-34.85L17.7-34.85 23-34.75 26.1-34.65 29.05-34.65Q33.35-34.65 34.05-34.75L34.05-34.75 34.4-34.8Q34.85-34.8 34.95-34.63 35.05-34.45 35.05-34.25 35.05-34.05 35.05-34L35.05-34Q35.05-33.95 35.07-33.02 35.1-32.1 34.6-31.4L34.6-31.4Q29-23.3 27.7-21.5L27.7-21.5Q24.1-16.4 21.6-13.1L21.6-13.1 16.85-6.6Q18.25-6.4 18.9-6.35L18.9-6.35Q20.45-6.15 22.5-6.15L22.5-6.15 25.35-6.2Q26.2-6.25 27.95-6.25L27.95-6.25Q29.35-6.25 33.15-6.45L33.15-6.45 36.25-6.55Q36.85-6.55 37-6.25 37.15-5.95 37.17-5.55 37.2-5.15 37.2-5L37.2-5 37.1-1.35 37.1-1.05Q37.1-0.55 37-0.45 36.9-0.35 36.4-0.3L36.4-0.3 35.4-0.2Q34.3-0.2 32.65 0.05L32.65 0.05Q31.95 0.15 29.75 0.15L29.75 0.15 25.8 0.1Q24.85 0.05 23.4 0.05L23.4 0.05 11.15 0.05Q10.05 0.05 9.8-0.28 9.55-0.6 9.57-1.03 9.6-1.45 9.6-1.6L9.6-1.6 9.7-3.55Q9.85-5 9.85-6L9.85-6Q9.85-6.4 10.2-6.9 10.55-7.4 11.2-8.1L11.2-8.1 12-9Q13.35-10.8 15.82-14.13 18.3-17.45 18.9-18.5L18.9-18.5Q19.5-19.6 21.35-22.03 23.2-24.45 23.65-25.1L23.65-25.1 24.25-25.9Q25-27 26.05-29.15L26.05-29.15 26.95-31.1Q26.65-31.1 26.5-31.15L26.5-31.15 25.5-31.25 20.2-31.3Q19.3-31.3 18.8-31.25L18.8-31.25 17.15-31.2Q16.45-31.2 16.25-31.25L16.25-31.25Q15.8-31.35 12.7-31.35L12.7-31.35 10.6-31.35Q10.2-31.4 10.1-31.5 10-31.6 10.02-31.75 10.05-31.9 10.05-32L10.05-32Q10.05-32.55 9.9-33.95L9.9-33.95Q9.85-34.45 10.12-34.58 10.4-34.7 10.8-34.68 11.2-34.65 11.4-34.65L11.4-34.65Z" opacity="1" transform="matrix(1,0,0,1,0,0)" fill="#a437db" class="undefined-text-0" data-fill-palette-color="primary" id="text-0"></path></svg></g></svg></g></svg></g></svg></g></svg></g></svg></g></svg></g><g><path d="M0 123.6c0-68.262 55.338-123.6 123.6-123.6 30.402 0 58.24 10.976 79.768 29.183l-11.147 0c-19.26-14.022-42.974-22.294-68.621-22.295-64.458 0-116.712 52.254-116.712 116.712 0 64.458 52.254 116.712 116.712 116.712 25.647 0 49.361-8.272 68.621-22.295l11.147 0c-21.528 18.206-49.366 29.183-79.768 29.183-68.262 0-123.6-55.338-123.6-123.6z" fill="#a437db" stroke="transparent" data-fill-palette-color="tertiary"></path></g></svg></g><defs></defs></svg><rect width="395.52" height="247.2" fill="none" stroke="none" visibility="hidden"></rect></g></svg></g></svg>